<?xml version="1.0" standalone="no"?>
<!DOCTYPE svg PUBLIC "-//W3C//DTD SVG 20010904//EN"
 "http://www.w3.org/TR/2001/REC-SVG-20010904/DTD/svg10.dtd">
<svg version="1.0" xmlns="http://www.w3.org/2000/svg"
 width="300.000000pt" height="300.000000pt" viewBox="0 0 300.000000 300.000000"
 preserveAspectRatio="xMidYMid meet">
<metadata>
Created by potrace 1.14, written by Peter Selinger 2001-2017
</metadata>
<g transform="translate(0.000000,300.000000) scale(0.100000,-0.100000)"
fill="#000000" stroke="none">
<path d="M0 1500 l0 -1500 1500 0 1500 0 0 1500 0 1500 -1500 0 -1500 0 0
-1500z m990 855 c53 -121 158 -363 234 -537 l139 -318 142 0 142 0 234 538
235 537 168 3 c145 2 167 0 164 -13 -2 -8 -109 -258 -238 -555 l-235 -540
-152 0 -153 0 0 -535 0 -535 -165 0 -165 0 0 535 0 535 -152 0 -153 0 -234
538 c-129 295 -236 545 -239 555 -4 16 7 17 164 15 l168 -3 96 -220z"/>
</g>
</svg>
